<svg width="25" height="25" viewBox="0 0 25 25" fill="none" xmlns="http://www.w3.org/2000/svg">
<g id="Clip path group">
<mask id="mask0_920_18567" style="mask-type:luminance" maskUnits="userSpaceOnUse" x="0" y="0" width="25" height="25">
<g id="clip0_760_7197">
<path id="Vector" d="M24.5 0.175293H0.5V24.1753H24.5V0.175293Z" fill="white"/>
</g>
</mask>
<g mask="url(#mask0_920_18567)">
<g id="Group">
<path id="Vector_2" d="M24.0161 12.4531C24.0161 11.6022 23.9398 10.7841 23.7979 9.99854H12.4961V14.6404H18.9543C18.6761 16.1404 17.8307 17.4113 16.5598 18.2622V21.2731H20.4379C22.707 19.1841 24.0161 16.1076 24.0161 12.4531Z" fill="#4285F4"/>
<path id="Vector_3" d="M12.5079 24.1736C15.7479 24.1736 18.4642 23.099 20.4496 21.2664L16.5714 18.2555C15.4969 18.9755 14.1223 19.4009 12.5079 19.4009C9.38234 19.4009 6.73694 17.2899 5.79326 14.4536H1.78418V17.5627C3.75878 21.4845 7.81694 24.1736 12.5079 24.1736Z" fill="#34A853"/>
<path id="Vector_4" d="M5.7854 14.4518C5.5454 13.7318 5.40908 12.9627 5.40908 12.1718C5.40908 11.3809 5.5454 10.6118 5.7854 9.8918V6.78271H1.77632C0.963679 8.40271 0.5 10.2355 0.5 12.1718C0.5 14.1081 0.963679 15.9409 1.77632 17.5609L5.7854 14.4518Z" fill="#FBBC04"/>
<path id="Vector_5" d="M12.5079 4.94805C14.2696 4.94805 15.8514 5.55345 17.0951 6.74253L20.5369 3.30069C18.4588 1.36437 15.7423 0.175293 12.5079 0.175293C7.81694 0.175293 3.75878 2.86437 1.78418 6.78621L5.79326 9.89529C6.73694 7.05897 9.38234 4.94805 12.5079 4.94805Z" fill="#E94235"/>
</g>
</g>
</g>
</svg>
