<svg width="256" height="39" viewBox="0 0 256 39" fill="none" xmlns="http://www.w3.org/2000/svg">
<g id="Logo Typo">
<path id="Vector" d="M29.8063 4.55709C33.6453 8.32532 34.7353 14.3859 33.6093 19.5272C29.5668 37.9812 -3.60618 33.8562 1.36467 11.7609C4.15554 -0.662789 21.5416 -3.54793 29.8123 4.56314L29.8063 4.55709ZM16.6785 4.83532C2.99368 5.57324 3.35302 24.8015 15.1214 26.1866C20.8708 26.8641 26.5963 25.0193 28.2013 18.8981C30.3513 10.7266 24.8714 4.39378 16.6785 4.83532Z" fill="white"/>
<path id="Vector_2" d="M251.504 9.58808H255.996V27.5824C255.996 28.3143 255.481 30.5281 255.247 31.3628C252.977 39.4255 243.934 39.5222 237.137 38.615L237.43 34.0786C242.629 34.2842 250.3 35.4032 250.606 28.03C241.73 35.5846 227.656 28.6833 231.351 16.2959C233.759 8.23926 245.312 6.35817 250.756 12.2978L251.504 9.58204V9.58808ZM241.245 13.2898C234.879 14.3785 234.01 23.8566 239.921 26.276C244.15 28.0119 249.929 26.276 250.582 21.2073C251.342 15.2918 246.605 12.3765 241.245 13.2898Z" fill="white"/>
<path id="Vector_3" d="M70.3393 0.213135V12.0078C79.4306 4.91284 92.271 10.163 89.9652 22.9072C88.3661 31.7441 75.5797 33.849 70.1836 27.4315L69.4589 30.3227C69.0876 30.5949 65.3984 30.6917 64.9492 30.0021V0.213135H70.3393ZM76.5559 13.2961C72.0462 13.8828 69.423 17.9051 70.7885 22.2963C72.7529 28.611 83.9702 28.115 84.7188 21.2318C85.2938 15.9333 81.7184 12.6247 76.5619 13.2961H76.5559Z" fill="white"/>
<path id="Vector_4" d="M188.621 0.213135V30.4558H184.129L183.83 27.4315C175.349 35.6454 160.82 29.6211 163.91 16.8345C165.971 8.30606 177.368 6.41287 183.237 12.0078V0.213135H188.627H188.621ZM175.08 13.3021C170.528 13.8163 168.606 17.1006 169.151 21.5402C170.037 28.7985 184.327 28.8831 183.231 18.8124C182.794 14.7901 178.739 12.8908 175.08 13.3082V13.3021Z" fill="white"/>
<path id="Vector_5" d="M142.504 30.4555H137.713L137.414 27.7337C133.748 30.7095 129.155 31.9676 124.537 30.6067C118.956 28.9615 118.411 21.2557 123.375 18.546C124.25 18.0681 127.101 17.1487 127.981 17.1487H137.114C137.797 10.7252 127.795 13.7253 124.244 14.7293L123.651 10.199C128.125 9.1284 137.312 7.38037 140.72 11.2393C141.414 12.0317 142.51 14.185 142.51 15.1769V30.4495L142.504 30.4555ZM137.114 21.0803H128.28C128.179 21.0803 126.556 21.7396 126.358 21.8605C125.34 22.4775 125.28 23.415 125.454 24.54C125.975 27.8546 132.101 26.276 134.102 25.1449C135.353 24.4372 137.474 22.6952 137.114 21.0803Z" fill="white"/>
<path id="Vector_6" d="M102.611 9.06363C109.564 8.11401 117.331 10.7693 117.966 18.8018C119.272 35.2961 92.3514 35.0783 93.0881 19.4066C93.3396 14.0779 97.4002 9.77736 102.611 9.06363ZM105.024 13.2915C100.221 13.5274 97.7655 17.0719 98.556 21.7655C99.7239 28.6669 113.367 28.4492 112.792 19.5155C112.522 15.3178 108.941 13.104 105.024 13.2915Z" fill="white"/>
<path id="Vector_7" d="M227.253 30.4562H221.863V16.0909C221.863 14.6756 220.257 13.7139 218.994 13.5506C215.514 13.0969 212.334 15.0203 210.184 17.6031V30.4562H204.794V9.58877H210.184V12.613C214.107 8.12503 224.677 6.75806 226.75 13.5747C226.839 13.8772 227.253 15.6433 227.253 15.7885V30.4562Z" fill="white"/>
<path id="Vector_8" d="M60.4577 30.4564H55.0676V16.0912C55.0676 15.7887 54.3489 14.4218 53.9836 14.1617C52.0312 12.7524 47.8629 13.823 45.9823 15.0871C45.617 15.3291 43.3891 17.4279 43.3891 17.6094V30.4625H37.999V9.59506H43.3891V12.6193C46.7489 8.58495 56.2235 7.03653 59.212 11.9116C59.5893 12.5286 60.4577 15.196 60.4577 15.7948V30.4625V30.4564Z" fill="white"/>
<path id="Vector_9" d="M152.689 9.58848V13.2176L154.342 11.1067C156.684 9.15299 159.403 8.6812 162.379 9.02597L162.828 9.47961L162.571 14.1249C159.588 13.2599 156.169 14.3063 154.354 16.8649C154.078 17.258 152.689 20.0645 152.689 20.3246V30.4559H147.299V9.58848H152.689Z" fill="white"/>
<path id="Vector_10" d="M199.401 9.58813H194.011V30.4556H199.401V9.58813Z" fill="white"/>
<path id="Vector_11" d="M199.301 1.22421C201.834 3.81902 198.385 8.05299 194.935 6.08722C190.665 3.64966 195.827 -2.32628 199.301 1.22421Z" fill="white"/>
</g>
</svg>
